<mxfile host="app.diagrams.net" modified="2023-06-21T23:24:49.157Z" agent="Mozilla/5.0 (X11; Ubuntu; Linux x86_64; rv:109.0) Gecko/20100101 Firefox/113.0" etag="M9WfUaqf1aotwAoqiK5H" version="21.5.0" type="device">
  <diagram name="Page-1" id="3q1SPSdyI0ol_BRTOvvR">
    <mxGraphModel dx="2819" dy="1027" grid="1" gridSize="10" guides="1" tooltips="1" connect="1" arrows="1" fold="1" page="1" pageScale="1" pageWidth="850" pageHeight="1100" math="0" shadow="0">
      <root>
        <mxCell id="0" />
        <mxCell id="1" parent="0" />
        <mxCell id="RSMQC_iivRcFvO6SgrfT-50" value="" style="rounded=0;whiteSpace=wrap;html=1;strokeColor=default;fontFamily=Helvetica;fontSize=12;fontColor=default;fillColor=default;" vertex="1" parent="1">
          <mxGeometry x="-160" y="17.5" width="1320" height="765" as="geometry" />
        </mxCell>
        <mxCell id="RSMQC_iivRcFvO6SgrfT-21" style="edgeStyle=orthogonalEdgeStyle;rounded=0;orthogonalLoop=1;jettySize=auto;html=1;entryX=0;entryY=0.5;entryDx=0;entryDy=0;" edge="1" parent="1" source="RSMQC_iivRcFvO6SgrfT-1" target="RSMQC_iivRcFvO6SgrfT-7">
          <mxGeometry relative="1" as="geometry" />
        </mxCell>
        <mxCell id="RSMQC_iivRcFvO6SgrfT-40" style="edgeStyle=orthogonalEdgeStyle;rounded=0;orthogonalLoop=1;jettySize=auto;html=1;entryX=0;entryY=0.5;entryDx=0;entryDy=0;" edge="1" parent="1" source="RSMQC_iivRcFvO6SgrfT-1" target="RSMQC_iivRcFvO6SgrfT-2">
          <mxGeometry relative="1" as="geometry">
            <mxPoint x="360" y="310" as="targetPoint" />
          </mxGeometry>
        </mxCell>
        <mxCell id="RSMQC_iivRcFvO6SgrfT-41" style="edgeStyle=orthogonalEdgeStyle;rounded=0;orthogonalLoop=1;jettySize=auto;html=1;entryX=0.019;entryY=0.44;entryDx=0;entryDy=0;entryPerimeter=0;" edge="1" parent="1" source="RSMQC_iivRcFvO6SgrfT-1" target="RSMQC_iivRcFvO6SgrfT-3">
          <mxGeometry relative="1" as="geometry" />
        </mxCell>
        <mxCell id="RSMQC_iivRcFvO6SgrfT-43" style="edgeStyle=orthogonalEdgeStyle;rounded=0;orthogonalLoop=1;jettySize=auto;html=1;entryX=0;entryY=0.5;entryDx=0;entryDy=0;" edge="1" parent="1" source="RSMQC_iivRcFvO6SgrfT-1" target="RSMQC_iivRcFvO6SgrfT-4">
          <mxGeometry relative="1" as="geometry" />
        </mxCell>
        <mxCell id="RSMQC_iivRcFvO6SgrfT-44" style="edgeStyle=orthogonalEdgeStyle;rounded=0;orthogonalLoop=1;jettySize=auto;html=1;entryX=0;entryY=0.5;entryDx=0;entryDy=0;" edge="1" parent="1" source="RSMQC_iivRcFvO6SgrfT-1" target="RSMQC_iivRcFvO6SgrfT-6">
          <mxGeometry relative="1" as="geometry" />
        </mxCell>
        <mxCell id="RSMQC_iivRcFvO6SgrfT-1" value="App" style="rounded=1;whiteSpace=wrap;html=1;" vertex="1" parent="1">
          <mxGeometry x="50" y="380" width="120" height="60" as="geometry" />
        </mxCell>
        <mxCell id="RSMQC_iivRcFvO6SgrfT-27" style="edgeStyle=orthogonalEdgeStyle;rounded=0;orthogonalLoop=1;jettySize=auto;html=1;entryX=0;entryY=0.5;entryDx=0;entryDy=0;" edge="1" parent="1" source="RSMQC_iivRcFvO6SgrfT-2" target="RSMQC_iivRcFvO6SgrfT-13">
          <mxGeometry relative="1" as="geometry" />
        </mxCell>
        <mxCell id="RSMQC_iivRcFvO6SgrfT-2" value="&lt;div&gt;PMS&lt;/div&gt;&lt;div&gt;Topci&lt;br&gt;&lt;/div&gt;" style="rounded=1;whiteSpace=wrap;html=1;" vertex="1" parent="1">
          <mxGeometry x="365" y="280" width="120" height="60" as="geometry" />
        </mxCell>
        <mxCell id="RSMQC_iivRcFvO6SgrfT-28" style="edgeStyle=orthogonalEdgeStyle;rounded=0;orthogonalLoop=1;jettySize=auto;html=1;exitX=1;exitY=0.5;exitDx=0;exitDy=0;entryX=0;entryY=0.5;entryDx=0;entryDy=0;" edge="1" parent="1" source="RSMQC_iivRcFvO6SgrfT-3" target="RSMQC_iivRcFvO6SgrfT-12">
          <mxGeometry relative="1" as="geometry" />
        </mxCell>
        <mxCell id="RSMQC_iivRcFvO6SgrfT-3" value="&lt;div&gt;SMS&lt;/div&gt;&lt;div&gt;Topic&lt;br&gt;&lt;/div&gt;" style="rounded=1;whiteSpace=wrap;html=1;" vertex="1" parent="1">
          <mxGeometry x="365" y="380" width="120" height="60" as="geometry" />
        </mxCell>
        <mxCell id="RSMQC_iivRcFvO6SgrfT-29" style="edgeStyle=orthogonalEdgeStyle;rounded=0;orthogonalLoop=1;jettySize=auto;html=1;" edge="1" parent="1" source="RSMQC_iivRcFvO6SgrfT-4" target="RSMQC_iivRcFvO6SgrfT-11">
          <mxGeometry relative="1" as="geometry" />
        </mxCell>
        <mxCell id="RSMQC_iivRcFvO6SgrfT-4" value="&lt;div&gt;OMS&lt;/div&gt;&lt;div&gt;Topic&lt;br&gt;&lt;/div&gt;" style="rounded=1;whiteSpace=wrap;html=1;" vertex="1" parent="1">
          <mxGeometry x="360" y="470" width="120" height="60" as="geometry" />
        </mxCell>
        <mxCell id="RSMQC_iivRcFvO6SgrfT-30" style="edgeStyle=orthogonalEdgeStyle;rounded=0;orthogonalLoop=1;jettySize=auto;html=1;entryX=0;entryY=0.5;entryDx=0;entryDy=0;" edge="1" parent="1" source="RSMQC_iivRcFvO6SgrfT-6" target="RSMQC_iivRcFvO6SgrfT-10">
          <mxGeometry relative="1" as="geometry" />
        </mxCell>
        <mxCell id="RSMQC_iivRcFvO6SgrfT-6" value="&lt;div&gt;UMS&lt;/div&gt;&lt;div&gt;Topic&lt;br&gt;&lt;/div&gt;" style="rounded=1;whiteSpace=wrap;html=1;" vertex="1" parent="1">
          <mxGeometry x="360" y="560" width="120" height="60" as="geometry" />
        </mxCell>
        <mxCell id="RSMQC_iivRcFvO6SgrfT-26" style="edgeStyle=orthogonalEdgeStyle;rounded=0;orthogonalLoop=1;jettySize=auto;html=1;entryX=0;entryY=0.5;entryDx=0;entryDy=0;" edge="1" parent="1" source="RSMQC_iivRcFvO6SgrfT-7" target="RSMQC_iivRcFvO6SgrfT-14">
          <mxGeometry relative="1" as="geometry" />
        </mxCell>
        <mxCell id="RSMQC_iivRcFvO6SgrfT-7" value="&lt;div&gt;CMS&lt;/div&gt;&lt;div&gt;Topic&lt;br&gt;&lt;/div&gt;" style="rounded=1;whiteSpace=wrap;html=1;" vertex="1" parent="1">
          <mxGeometry x="365" y="180" width="120" height="60" as="geometry" />
        </mxCell>
        <mxCell id="RSMQC_iivRcFvO6SgrfT-8" value="MongoDb" style="rounded=1;whiteSpace=wrap;html=1;" vertex="1" parent="1">
          <mxGeometry x="840" y="690" width="120" height="60" as="geometry" />
        </mxCell>
        <mxCell id="RSMQC_iivRcFvO6SgrfT-9" value="Postgres" style="rounded=1;whiteSpace=wrap;html=1;" vertex="1" parent="1">
          <mxGeometry x="840" y="370" width="120" height="60" as="geometry" />
        </mxCell>
        <mxCell id="RSMQC_iivRcFvO6SgrfT-36" style="edgeStyle=orthogonalEdgeStyle;rounded=0;orthogonalLoop=1;jettySize=auto;html=1;entryX=0;entryY=0.5;entryDx=0;entryDy=0;" edge="1" parent="1" source="RSMQC_iivRcFvO6SgrfT-10" target="RSMQC_iivRcFvO6SgrfT-9">
          <mxGeometry relative="1" as="geometry">
            <mxPoint x="870" y="520" as="targetPoint" />
          </mxGeometry>
        </mxCell>
        <mxCell id="RSMQC_iivRcFvO6SgrfT-10" value="&lt;div&gt;UMS&lt;/div&gt;&lt;div&gt;Service&lt;br&gt;&lt;/div&gt;" style="rounded=1;whiteSpace=wrap;html=1;" vertex="1" parent="1">
          <mxGeometry x="550" y="560" width="120" height="60" as="geometry" />
        </mxCell>
        <mxCell id="RSMQC_iivRcFvO6SgrfT-35" style="edgeStyle=orthogonalEdgeStyle;rounded=0;orthogonalLoop=1;jettySize=auto;html=1;entryX=0;entryY=0.5;entryDx=0;entryDy=0;" edge="1" parent="1" source="RSMQC_iivRcFvO6SgrfT-11" target="RSMQC_iivRcFvO6SgrfT-9">
          <mxGeometry relative="1" as="geometry">
            <mxPoint x="840" y="480" as="targetPoint" />
          </mxGeometry>
        </mxCell>
        <mxCell id="RSMQC_iivRcFvO6SgrfT-11" value="&lt;div&gt;OMS&lt;/div&gt;&lt;div&gt;Service&lt;br&gt;&lt;/div&gt;" style="rounded=1;whiteSpace=wrap;html=1;" vertex="1" parent="1">
          <mxGeometry x="550" y="470" width="120" height="60" as="geometry" />
        </mxCell>
        <mxCell id="RSMQC_iivRcFvO6SgrfT-51" style="edgeStyle=orthogonalEdgeStyle;rounded=0;orthogonalLoop=1;jettySize=auto;html=1;entryX=0;entryY=0.5;entryDx=0;entryDy=0;fontFamily=Helvetica;fontSize=12;fontColor=default;" edge="1" parent="1" source="RSMQC_iivRcFvO6SgrfT-12" target="RSMQC_iivRcFvO6SgrfT-9">
          <mxGeometry relative="1" as="geometry" />
        </mxCell>
        <mxCell id="RSMQC_iivRcFvO6SgrfT-12" value="&lt;div&gt;SMS&lt;/div&gt;&lt;div&gt;Service&lt;br&gt;&lt;/div&gt;" style="rounded=1;whiteSpace=wrap;html=1;" vertex="1" parent="1">
          <mxGeometry x="550" y="380" width="120" height="60" as="geometry" />
        </mxCell>
        <mxCell id="RSMQC_iivRcFvO6SgrfT-52" style="edgeStyle=orthogonalEdgeStyle;rounded=0;orthogonalLoop=1;jettySize=auto;html=1;entryX=0;entryY=0.5;entryDx=0;entryDy=0;fontFamily=Helvetica;fontSize=12;fontColor=default;" edge="1" parent="1" source="RSMQC_iivRcFvO6SgrfT-13" target="RSMQC_iivRcFvO6SgrfT-9">
          <mxGeometry relative="1" as="geometry" />
        </mxCell>
        <mxCell id="RSMQC_iivRcFvO6SgrfT-13" value="&lt;div&gt;PMS&lt;/div&gt;&lt;div&gt;Service&lt;br&gt;&lt;/div&gt;" style="rounded=1;whiteSpace=wrap;html=1;" vertex="1" parent="1">
          <mxGeometry x="550" y="280" width="120" height="60" as="geometry" />
        </mxCell>
        <mxCell id="RSMQC_iivRcFvO6SgrfT-31" style="edgeStyle=orthogonalEdgeStyle;rounded=0;orthogonalLoop=1;jettySize=auto;html=1;entryX=0;entryY=0.5;entryDx=0;entryDy=0;" edge="1" parent="1" source="RSMQC_iivRcFvO6SgrfT-14" target="RSMQC_iivRcFvO6SgrfT-9">
          <mxGeometry relative="1" as="geometry">
            <mxPoint x="760" y="410" as="targetPoint" />
          </mxGeometry>
        </mxCell>
        <mxCell id="RSMQC_iivRcFvO6SgrfT-14" value="&lt;div&gt;CMS&lt;/div&gt;&lt;div&gt;Service&lt;br&gt;&lt;/div&gt;" style="rounded=1;whiteSpace=wrap;html=1;" vertex="1" parent="1">
          <mxGeometry x="550" y="180" width="120" height="60" as="geometry" />
        </mxCell>
        <mxCell id="RSMQC_iivRcFvO6SgrfT-37" style="edgeStyle=orthogonalEdgeStyle;rounded=0;orthogonalLoop=1;jettySize=auto;html=1;entryX=0.5;entryY=0;entryDx=0;entryDy=0;" edge="1" parent="1" source="RSMQC_iivRcFvO6SgrfT-15" target="RSMQC_iivRcFvO6SgrfT-9">
          <mxGeometry relative="1" as="geometry" />
        </mxCell>
        <mxCell id="RSMQC_iivRcFvO6SgrfT-15" value="Admin" style="rounded=1;whiteSpace=wrap;html=1;" vertex="1" parent="1">
          <mxGeometry x="50" y="120" width="120" height="60" as="geometry" />
        </mxCell>
        <mxCell id="RSMQC_iivRcFvO6SgrfT-38" style="edgeStyle=orthogonalEdgeStyle;rounded=0;orthogonalLoop=1;jettySize=auto;html=1;entryX=0.5;entryY=1;entryDx=0;entryDy=0;" edge="1" parent="1" source="RSMQC_iivRcFvO6SgrfT-16" target="RSMQC_iivRcFvO6SgrfT-9">
          <mxGeometry relative="1" as="geometry">
            <Array as="points">
              <mxPoint x="190" y="670" />
              <mxPoint x="900" y="670" />
            </Array>
          </mxGeometry>
        </mxCell>
        <mxCell id="RSMQC_iivRcFvO6SgrfT-39" style="edgeStyle=orthogonalEdgeStyle;rounded=0;orthogonalLoop=1;jettySize=auto;html=1;entryX=0;entryY=0.5;entryDx=0;entryDy=0;" edge="1" parent="1" source="RSMQC_iivRcFvO6SgrfT-16" target="RSMQC_iivRcFvO6SgrfT-8">
          <mxGeometry relative="1" as="geometry" />
        </mxCell>
        <mxCell id="RSMQC_iivRcFvO6SgrfT-16" value="&lt;div&gt;Search&lt;/div&gt;" style="rounded=1;whiteSpace=wrap;html=1;" vertex="1" parent="1">
          <mxGeometry x="50" y="650" width="120" height="60" as="geometry" />
        </mxCell>
        <mxCell id="RSMQC_iivRcFvO6SgrfT-17" value="&lt;div&gt;Eureka&lt;/div&gt;&lt;div&gt;Service Discovery&lt;br&gt;&lt;/div&gt;" style="rounded=1;whiteSpace=wrap;html=1;" vertex="1" parent="1">
          <mxGeometry x="-120" y="170" width="120" height="60" as="geometry" />
        </mxCell>
        <mxCell id="RSMQC_iivRcFvO6SgrfT-18" value="Gateway" style="rounded=1;whiteSpace=wrap;html=1;" vertex="1" parent="1">
          <mxGeometry x="-200" y="370" width="120" height="60" as="geometry" />
        </mxCell>
        <mxCell id="RSMQC_iivRcFvO6SgrfT-53" value="Docker" style="text;strokeColor=none;fillColor=none;html=1;fontSize=12;fontStyle=1;verticalAlign=middle;align=center;fontFamily=Helvetica;fontColor=default;" vertex="1" parent="1">
          <mxGeometry x="-150" y="40" width="100" height="40" as="geometry" />
        </mxCell>
      </root>
    </mxGraphModel>
  </diagram>
</mxfile>
